<?xml version="1.0" encoding="UTF-8" standalone="no"?>
<!DOCTYPE svg PUBLIC "-//W3C//DTD SVG 1.1//EN"
 "http://www.w3.org/Graphics/SVG/1.1/DTD/svg11.dtd">
<!-- Generated by graphviz version 2.44.1 (20200629.0846)
 -->
<!-- Title: G Pages: 1 -->
<svg width="516pt" height="642pt"
 viewBox="0.00 0.00 515.89 642.00" xmlns="http://www.w3.org/2000/svg" xmlns:xlink="http://www.w3.org/1999/xlink">
<g id="graph0" class="graph" transform="scale(1 1) rotate(0) translate(4 638)">
<title>G</title>
<polygon fill="white" stroke="transparent" points="-4,4 -4,-638 511.89,-638 511.89,4 -4,4"/>
<g id="clust1" class="cluster">
<title>cluster_Global</title>
<path fill="none" stroke="gray" d="M146.89,-44C146.89,-44 487.89,-44 487.89,-44 493.89,-44 499.89,-50 499.89,-56 499.89,-56 499.89,-614 499.89,-614 499.89,-620 493.89,-626 487.89,-626 487.89,-626 146.89,-626 146.89,-626 140.89,-626 134.89,-620 134.89,-614 134.89,-614 134.89,-56 134.89,-56 134.89,-50 140.89,-44 146.89,-44"/>
<text text-anchor="middle" x="317.39" y="-613.2" font-family="Times New Roman,serif" font-size="11.00" fill="gray">Global</text>
</g>
<g id="clust2" class="cluster">
<title>cluster_\App</title>
<path fill="none" stroke="gray" d="M154.89,-52C154.89,-52 479.89,-52 479.89,-52 485.89,-52 491.89,-58 491.89,-64 491.89,-64 491.89,-434 491.89,-434 491.89,-440 485.89,-446 479.89,-446 479.89,-446 154.89,-446 154.89,-446 148.89,-446 142.89,-440 142.89,-434 142.89,-434 142.89,-64 142.89,-64 142.89,-58 148.89,-52 154.89,-52"/>
<text text-anchor="middle" x="317.39" y="-433.2" font-family="Times New Roman,serif" font-size="11.00" fill="gray">App</text>
</g>
<g id="clust3" class="cluster">
<title>cluster_\App\Http</title>
<path fill="none" stroke="gray" d="M162.89,-104C162.89,-104 471.89,-104 471.89,-104 477.89,-104 483.89,-110 483.89,-116 483.89,-116 483.89,-308 483.89,-308 483.89,-314 477.89,-320 471.89,-320 471.89,-320 162.89,-320 162.89,-320 156.89,-320 150.89,-314 150.89,-308 150.89,-308 150.89,-116 150.89,-116 150.89,-110 156.89,-104 162.89,-104"/>
<text text-anchor="middle" x="317.39" y="-307.2" font-family="Times New Roman,serif" font-size="11.00" fill="gray">Http</text>
</g>
<g id="clust4" class="cluster">
<title>cluster_\App\Http\Controllers</title>
<path fill="none" stroke="gray" d="M170.89,-112C170.89,-112 463.89,-112 463.89,-112 469.89,-112 475.89,-118 475.89,-124 475.89,-124 475.89,-280 475.89,-280 475.89,-286 469.89,-292 463.89,-292 463.89,-292 170.89,-292 170.89,-292 164.89,-292 158.89,-286 158.89,-280 158.89,-280 158.89,-124 158.89,-124 158.89,-118 164.89,-112 170.89,-112"/>
<text text-anchor="middle" x="317.39" y="-279.2" font-family="Times New Roman,serif" font-size="11.00" fill="gray">Controllers</text>
</g>
<g id="clust5" class="cluster">
<title>cluster_Global\Illuminate</title>
<path fill="none" stroke="gray" d="M162.44,-454C162.44,-454 255.34,-454 255.34,-454 261.34,-454 267.34,-460 267.34,-466 267.34,-466 267.34,-586 267.34,-586 267.34,-592 261.34,-598 255.34,-598 255.34,-598 162.44,-598 162.44,-598 156.44,-598 150.44,-592 150.44,-586 150.44,-586 150.44,-466 150.44,-466 150.44,-460 156.44,-454 162.44,-454"/>
<text text-anchor="middle" x="208.89" y="-585.2" font-family="Times New Roman,serif" font-size="11.00" fill="gray">Illuminate</text>
</g>
<g id="clust6" class="cluster">
<title>cluster_Global\Illuminate\Database</title>
<path fill="none" stroke="gray" d="M170.44,-462C170.44,-462 247.34,-462 247.34,-462 253.34,-462 259.34,-468 259.34,-474 259.34,-474 259.34,-558 259.34,-558 259.34,-564 253.34,-570 247.34,-570 247.34,-570 170.44,-570 170.44,-570 164.44,-570 158.44,-564 158.44,-558 158.44,-558 158.44,-474 158.44,-474 158.44,-468 164.44,-462 170.44,-462"/>
<text text-anchor="middle" x="208.89" y="-557.2" font-family="Times New Roman,serif" font-size="11.00" fill="gray">Database</text>
</g>
<g id="clust7" class="cluster">
<title>cluster_Global\Illuminate\Database\Eloquent</title>
<path fill="none" stroke="gray" d="M178.44,-470C178.44,-470 239.34,-470 239.34,-470 245.34,-470 251.34,-476 251.34,-482 251.34,-482 251.34,-530 251.34,-530 251.34,-536 245.34,-542 239.34,-542 239.34,-542 178.44,-542 178.44,-542 172.44,-542 166.44,-536 166.44,-530 166.44,-530 166.44,-482 166.44,-482 166.44,-476 172.44,-470 178.44,-470"/>
<text text-anchor="middle" x="208.89" y="-529.2" font-family="Times New Roman,serif" font-size="11.00" fill="gray">Eloquent</text>
</g>
<!-- \\App\\Http\\Controllers\\Controller -->
<g id="node1" class="node">
<title>\\App\\Http\\Controllers\\Controller</title>
<polygon fill="none" stroke="black" points="250.89,-210 166.89,-210 166.89,-174 250.89,-174 250.89,-210"/>
<text text-anchor="middle" x="208.89" y="-189.2" font-family="Courier,monospace" font-size="11.00">Controller</text>
</g>
<!-- Controller -->
<g id="node9" class="node">
<title>Controller</title>
<ellipse fill="none" stroke="black" cx="47.45" cy="-192" rx="47.39" ry="18"/>
<text text-anchor="middle" x="47.45" y="-188.3" font-family="Times New Roman,serif" font-size="14.00">Controller</text>
</g>
<!-- \\App\\Http\\Controllers\\Controller&#45;&gt;Controller -->
<g id="edge1" class="edge">
<title>\\App\\Http\\Controllers\\Controller&#45;&gt;Controller</title>
<path fill="none" stroke="black" d="M166.83,-192C148.04,-192 125.48,-192 105.11,-192"/>
<polygon fill="none" stroke="black" points="105,-188.5 95,-192 105,-195.5 105,-188.5"/>
</g>
<!-- \\App\\Http\\Controllers\\EmployeesController -->
<g id="node2" class="node">
<title>\\App\\Http\\Controllers\\EmployeesController</title>
<polygon fill="none" stroke="black" points="467.89,-264 322.89,-264 322.89,-228 467.89,-228 467.89,-264"/>
<text text-anchor="middle" x="395.39" y="-243.2" font-family="Courier,monospace" font-size="11.00">EmployeesController</text>
</g>
<!-- \\App\\Http\\Controllers\\EmployeesController&#45;&gt;\\App\\Http\\Controllers\\Controller -->
<g id="edge2" class="edge">
<title>\\App\\Http\\Controllers\\EmployeesController&#45;&gt;\\App\\Http\\Controllers\\Controller</title>
<path fill="none" stroke="black" d="M332.7,-227.94C309.25,-221.08 282.82,-213.35 260.51,-206.82"/>
<polygon fill="none" stroke="black" points="261.48,-203.45 250.9,-204 259.52,-210.17 261.48,-203.45"/>
</g>
<!-- \\App\\Http\\Controllers\\CompaniesController -->
<g id="node3" class="node">
<title>\\App\\Http\\Controllers\\CompaniesController</title>
<polygon fill="none" stroke="black" points="467.89,-210 322.89,-210 322.89,-174 467.89,-174 467.89,-210"/>
<text text-anchor="middle" x="395.39" y="-189.2" font-family="Courier,monospace" font-size="11.00">CompaniesController</text>
</g>
<!-- \\App\\Http\\Controllers\\CompaniesController&#45;&gt;\\App\\Http\\Controllers\\Controller -->
<g id="edge3" class="edge">
<title>\\App\\Http\\Controllers\\CompaniesController&#45;&gt;\\App\\Http\\Controllers\\Controller</title>
<path fill="none" stroke="black" d="M322.79,-192C302.28,-192 280.34,-192 261.3,-192"/>
<polygon fill="none" stroke="black" points="261.05,-188.5 251.05,-192 261.05,-195.5 261.05,-188.5"/>
</g>
<!-- \\App\\Http\\Controllers\\HomeController -->
<g id="node4" class="node">
<title>\\App\\Http\\Controllers\\HomeController</title>
<polygon fill="none" stroke="black" points="450.89,-156 339.89,-156 339.89,-120 450.89,-120 450.89,-156"/>
<text text-anchor="middle" x="395.39" y="-135.2" font-family="Courier,monospace" font-size="11.00">HomeController</text>
</g>
<!-- \\App\\Http\\Controllers\\HomeController&#45;&gt;\\App\\Http\\Controllers\\Controller -->
<g id="edge4" class="edge">
<title>\\App\\Http\\Controllers\\HomeController&#45;&gt;\\App\\Http\\Controllers\\Controller</title>
<path fill="none" stroke="black" d="M339.54,-154.06C314.61,-161.35 285.3,-169.93 260.86,-177.08"/>
<polygon fill="none" stroke="black" points="259.67,-173.78 251.06,-179.95 261.64,-180.5 259.67,-173.78"/>
</g>
<!-- \\App\\User -->
<g id="node5" class="node">
<title>\\App\\User</title>
<polygon fill="none" stroke="black" points="422.39,-96 368.39,-96 368.39,-60 422.39,-60 422.39,-96"/>
<text text-anchor="middle" x="395.39" y="-75.2" font-family="Courier,monospace" font-size="11.00">User</text>
</g>
<!-- User -->
<g id="node10" class="node">
<title>User</title>
<ellipse fill="none" stroke="black" cx="208.89" cy="-18" rx="27.9" ry="18"/>
<text text-anchor="middle" x="208.89" y="-14.3" font-family="Times New Roman,serif" font-size="14.00">User</text>
</g>
<!-- \\App\\User&#45;&gt;User -->
<g id="edge5" class="edge">
<title>\\App\\User&#45;&gt;User</title>
<path fill="none" stroke="black" d="M368.35,-69.53C335.66,-58.9 279.54,-40.65 243.6,-28.96"/>
<polygon fill="none" stroke="black" points="244.63,-25.62 234.04,-25.85 242.47,-32.27 244.63,-25.62"/>
</g>
<!-- \\App\\Company -->
<g id="node6" class="node">
<title>\\App\\Company</title>
<polygon fill="none" stroke="black" points="427.39,-418 363.39,-418 363.39,-382 427.39,-382 427.39,-418"/>
<text text-anchor="middle" x="395.39" y="-397.2" font-family="Courier,monospace" font-size="11.00">Company</text>
</g>
<!-- Model -->
<g id="node8" class="node">
<title>Model</title>
<ellipse fill="none" stroke="black" cx="208.89" cy="-496" rx="34.39" ry="18"/>
<text text-anchor="middle" x="208.89" y="-492.3" font-family="Times New Roman,serif" font-size="14.00" fill="gray">Model</text>
</g>
<!-- \\App\\Company&#45;&gt;Model -->
<g id="edge6" class="edge">
<title>\\App\\Company&#45;&gt;Model</title>
<path fill="none" stroke="black" d="M363.09,-416.29C329.73,-433.64 277.12,-461.02 243.06,-478.74"/>
<polygon fill="none" stroke="black" points="241.23,-475.75 233.98,-483.47 244.46,-481.96 241.23,-475.75"/>
</g>
<!-- \\App\\Employee -->
<g id="node7" class="node">
<title>\\App\\Employee</title>
<polygon fill="none" stroke="black" points="430.89,-364 359.89,-364 359.89,-328 430.89,-328 430.89,-364"/>
<text text-anchor="middle" x="395.39" y="-343.2" font-family="Courier,monospace" font-size="11.00">Employee</text>
</g>
<!-- \\App\\Employee&#45;&gt;Model -->
<g id="edge7" class="edge">
<title>\\App\\Employee&#45;&gt;Model</title>
<path fill="none" stroke="black" d="M359.71,-355.45C347.47,-359.71 333.99,-365.49 322.89,-373 283.22,-399.82 247.71,-443.21 227.5,-470.64"/>
<polygon fill="none" stroke="black" points="224.52,-468.8 221.49,-478.95 230.19,-472.9 224.52,-468.8"/>
</g>
</g>
</svg>
